<mxfile host="app.diagrams.net" agent="Mozilla/5.0 (Macintosh; Intel Mac OS X 10_15_7) AppleWebKit/537.36 (KHTML, like Gecko) Chrome/126.0.0.0 Safari/537.36 OPR/112.0.0.0" version="24.7.4">
  <diagram name="PÃ¡gina-1" id="mBX1DXli7DbKJ6v1EeVo">
    <mxGraphModel dx="550" dy="592" grid="1" gridSize="10" guides="1" tooltips="1" connect="1" arrows="1" fold="1" page="1" pageScale="1" pageWidth="827" pageHeight="1169" math="0" shadow="0">
      <root>
        <mxCell id="0" />
        <mxCell id="1" parent="0" />
        <mxCell id="eMihlJpAppJxDjBYdMjB-1" value="&lt;i&gt;Deporte&lt;/i&gt;" style="swimlane;fontStyle=1;align=center;verticalAlign=top;childLayout=stackLayout;horizontal=1;startSize=26;horizontalStack=0;resizeParent=1;resizeParentMax=0;resizeLast=0;collapsible=1;marginBottom=0;whiteSpace=wrap;html=1;" parent="1" vertex="1">
          <mxGeometry x="70" y="60" width="210" height="130" as="geometry" />
        </mxCell>
        <mxCell id="eMihlJpAppJxDjBYdMjB-2" value="&lt;div&gt;- nombre: string&lt;/div&gt;&lt;div&gt;- tipo: TipoDeporte&lt;/div&gt;" style="text;strokeColor=none;fillColor=none;align=left;verticalAlign=top;spacingLeft=4;spacingRight=4;overflow=hidden;rotatable=0;points=[[0,0.5],[1,0.5]];portConstraint=eastwest;whiteSpace=wrap;html=1;" parent="eMihlJpAppJxDjBYdMjB-1" vertex="1">
          <mxGeometry y="26" width="210" height="44" as="geometry" />
        </mxCell>
        <mxCell id="eMihlJpAppJxDjBYdMjB-3" value="" style="line;strokeWidth=1;fillColor=none;align=left;verticalAlign=middle;spacingTop=-1;spacingLeft=3;spacingRight=3;rotatable=0;labelPosition=right;points=[];portConstraint=eastwest;strokeColor=inherit;" parent="eMihlJpAppJxDjBYdMjB-1" vertex="1">
          <mxGeometry y="70" width="210" height="8" as="geometry" />
        </mxCell>
        <mxCell id="eMihlJpAppJxDjBYdMjB-4" value="&lt;div&gt;&lt;span style=&quot;background-color: initial;&quot;&gt;+ getNombre(): int&lt;/span&gt;&lt;br&gt;&lt;/div&gt;&lt;div&gt;+ getTipo(): TipoDeporte&lt;br&gt;&lt;/div&gt;" style="text;strokeColor=none;fillColor=none;align=left;verticalAlign=top;spacingLeft=4;spacingRight=4;overflow=hidden;rotatable=0;points=[[0,0.5],[1,0.5]];portConstraint=eastwest;whiteSpace=wrap;html=1;" parent="eMihlJpAppJxDjBYdMjB-1" vertex="1">
          <mxGeometry y="78" width="210" height="52" as="geometry" />
        </mxCell>
        <mxCell id="STGYGHROPqpZrpoP6dvl-1" value="Equipo" style="swimlane;fontStyle=1;align=center;verticalAlign=top;childLayout=stackLayout;horizontal=1;startSize=26;horizontalStack=0;resizeParent=1;resizeParentMax=0;resizeLast=0;collapsible=1;marginBottom=0;whiteSpace=wrap;html=1;" parent="1" vertex="1">
          <mxGeometry x="330" y="50" width="230" height="134" as="geometry" />
        </mxCell>
        <mxCell id="STGYGHROPqpZrpoP6dvl-2" value="- nombre: string&lt;div&gt;- jugadores: List&amp;lt;Jugador&amp;gt;&lt;/div&gt;&lt;div&gt;- genero: Genero&lt;/div&gt;&lt;div&gt;- ciclo: int&lt;/div&gt;" style="text;strokeColor=none;fillColor=none;align=left;verticalAlign=top;spacingLeft=4;spacingRight=4;overflow=hidden;rotatable=0;points=[[0,0.5],[1,0.5]];portConstraint=eastwest;whiteSpace=wrap;html=1;" parent="STGYGHROPqpZrpoP6dvl-1" vertex="1">
          <mxGeometry y="26" width="230" height="74" as="geometry" />
        </mxCell>
        <mxCell id="STGYGHROPqpZrpoP6dvl-3" value="" style="line;strokeWidth=1;fillColor=none;align=left;verticalAlign=middle;spacingTop=-1;spacingLeft=3;spacingRight=3;rotatable=0;labelPosition=right;points=[];portConstraint=eastwest;strokeColor=inherit;" parent="STGYGHROPqpZrpoP6dvl-1" vertex="1">
          <mxGeometry y="100" width="230" height="8" as="geometry" />
        </mxCell>
        <mxCell id="STGYGHROPqpZrpoP6dvl-4" value="+ agregarJugador(jugador:Jugador): void" style="text;strokeColor=none;fillColor=none;align=left;verticalAlign=top;spacingLeft=4;spacingRight=4;overflow=hidden;rotatable=0;points=[[0,0.5],[1,0.5]];portConstraint=eastwest;whiteSpace=wrap;html=1;" parent="STGYGHROPqpZrpoP6dvl-1" vertex="1">
          <mxGeometry y="108" width="230" height="26" as="geometry" />
        </mxCell>
        <mxCell id="u0d8qMAOlNacAVuoKSEI-2" value="&lt;i&gt;Campeonato&lt;/i&gt;" style="swimlane;fontStyle=1;align=center;verticalAlign=top;childLayout=stackLayout;horizontal=1;startSize=26;horizontalStack=0;resizeParent=1;resizeParentMax=0;resizeLast=0;collapsible=1;marginBottom=0;whiteSpace=wrap;html=1;" vertex="1" parent="1">
          <mxGeometry x="70" y="220" width="220" height="180" as="geometry" />
        </mxCell>
        <mxCell id="u0d8qMAOlNacAVuoKSEI-3" value="&lt;div&gt;- nombre: string&lt;/div&gt;&lt;div&gt;- tipo: TipoDeporte&lt;/div&gt;&lt;div&gt;- sistema: SistemaCampeonato&lt;/div&gt;&lt;div&gt;- equipo:&lt;/div&gt;&lt;div&gt;- estadistica:&lt;/div&gt;" style="text;strokeColor=none;fillColor=none;align=left;verticalAlign=top;spacingLeft=4;spacingRight=4;overflow=hidden;rotatable=0;points=[[0,0.5],[1,0.5]];portConstraint=eastwest;whiteSpace=wrap;html=1;" vertex="1" parent="u0d8qMAOlNacAVuoKSEI-2">
          <mxGeometry y="26" width="220" height="84" as="geometry" />
        </mxCell>
        <mxCell id="u0d8qMAOlNacAVuoKSEI-4" value="" style="line;strokeWidth=1;fillColor=none;align=left;verticalAlign=middle;spacingTop=-1;spacingLeft=3;spacingRight=3;rotatable=0;labelPosition=right;points=[];portConstraint=eastwest;strokeColor=inherit;" vertex="1" parent="u0d8qMAOlNacAVuoKSEI-2">
          <mxGeometry y="110" width="220" height="8" as="geometry" />
        </mxCell>
        <mxCell id="u0d8qMAOlNacAVuoKSEI-5" value="&lt;div&gt;+ inscribirEquipo(equipo:Equipo): void&lt;/div&gt;&lt;div&gt;+ generarCalendario(): void&lt;/div&gt;&lt;div&gt;+ calcularEstadisticas(): void&lt;/div&gt;" style="text;strokeColor=none;fillColor=none;align=left;verticalAlign=top;spacingLeft=4;spacingRight=4;overflow=hidden;rotatable=0;points=[[0,0.5],[1,0.5]];portConstraint=eastwest;whiteSpace=wrap;html=1;" vertex="1" parent="u0d8qMAOlNacAVuoKSEI-2">
          <mxGeometry y="118" width="220" height="62" as="geometry" />
        </mxCell>
        <mxCell id="u0d8qMAOlNacAVuoKSEI-6" value="Equipo" style="swimlane;fontStyle=1;align=center;verticalAlign=top;childLayout=stackLayout;horizontal=1;startSize=26;horizontalStack=0;resizeParent=1;resizeParentMax=0;resizeLast=0;collapsible=1;marginBottom=0;whiteSpace=wrap;html=1;" vertex="1" parent="1">
          <mxGeometry x="340" y="243" width="230" height="134" as="geometry" />
        </mxCell>
        <mxCell id="u0d8qMAOlNacAVuoKSEI-7" value="- nombre: string&lt;div&gt;- jugadores: List&amp;lt;Jugador&amp;gt;&lt;/div&gt;&lt;div&gt;- genero: Genero&lt;/div&gt;&lt;div&gt;- ciclo: int&lt;/div&gt;" style="text;strokeColor=none;fillColor=none;align=left;verticalAlign=top;spacingLeft=4;spacingRight=4;overflow=hidden;rotatable=0;points=[[0,0.5],[1,0.5]];portConstraint=eastwest;whiteSpace=wrap;html=1;" vertex="1" parent="u0d8qMAOlNacAVuoKSEI-6">
          <mxGeometry y="26" width="230" height="74" as="geometry" />
        </mxCell>
        <mxCell id="u0d8qMAOlNacAVuoKSEI-8" value="" style="line;strokeWidth=1;fillColor=none;align=left;verticalAlign=middle;spacingTop=-1;spacingLeft=3;spacingRight=3;rotatable=0;labelPosition=right;points=[];portConstraint=eastwest;strokeColor=inherit;" vertex="1" parent="u0d8qMAOlNacAVuoKSEI-6">
          <mxGeometry y="100" width="230" height="8" as="geometry" />
        </mxCell>
        <mxCell id="u0d8qMAOlNacAVuoKSEI-9" value="+ agregarJugador(jugador:Jugador): void" style="text;strokeColor=none;fillColor=none;align=left;verticalAlign=top;spacingLeft=4;spacingRight=4;overflow=hidden;rotatable=0;points=[[0,0.5],[1,0.5]];portConstraint=eastwest;whiteSpace=wrap;html=1;" vertex="1" parent="u0d8qMAOlNacAVuoKSEI-6">
          <mxGeometry y="108" width="230" height="26" as="geometry" />
        </mxCell>
      </root>
    </mxGraphModel>
  </diagram>
</mxfile>
